<?xml version="1.0" standalone="no"?>
<!DOCTYPE svg PUBLIC "-//W3C//DTD SVG 20010904//EN"
 "http://www.w3.org/TR/2001/REC-SVG-20010904/DTD/svg10.dtd">
<svg version="1.0" xmlns="http://www.w3.org/2000/svg"
 width="3370.000000pt" height="3370.000000pt" viewBox="0 0 3370.000000 3370.000000"
 preserveAspectRatio="xMidYMid meet">
<metadata>
Created by potrace 1.14, written by Peter Selinger 2001-2017
</metadata>
<g transform="translate(0.000000,3370.000000) scale(0.100000,-0.100000)"
fill="#000000" stroke="none">
<path d="M24720 30204 c-412 -21 -958 -114 -1825 -310 -1370 -310 -5509 -1358
-11355 -2875 -3007 -780 -5118 -1329 -7518 -1955 l-1282 -334 -168 0 c-277 0
-472 -24 -709 -85 -427 -112 -811 -333 -1128 -650 -421 -421 -670 -956 -724
-1555 -15 -160 -15 -16509 -1 -16670 54 -599 304 -1135 724 -1556 419 -418
953 -668 1546 -723 162 -15 28978 -15 29140 0 1217 113 2166 1067 2270 2284 8
94 10 2415 7 8420 -3 7710 -4 8297 -20 8385 -57 326 -132 556 -259 800 -318
613 -886 1075 -1547 1256 -152 42 -306 70 -461 84 -75 6 -959 10 -2567 10
l-2453 0 0 1278 c0 1239 -9 1932 -30 2427 -25 585 -65 804 -190 1061 -188 386
-530 624 -990 688 -110 15 -348 26 -460 20z m87 -1500 c-3 -3 -12 -4 -19 -1
-8 3 -5 6 6 6 11 1 17 -2 13 -5z m60 -406 c-3 -8 -6 -5 -6 6 -1 11 2 17 5 13
3 -3 4 -12 1 -19z m10 -335 c-3 -10 -5 -4 -5 12 0 17 2 24 5 18 2 -7 2 -21 0
-30z m10 -515 c-2 -13 -4 -5 -4 17 -1 22 1 32 4 23 2 -10 2 -28 0 -40z m-6693
-8912 c2010 -1313 2883 -1883 3308 -2159 213 -139 386 -256 384 -261 -1 -5
-285 -194 -631 -420 -347 -227 -1366 -893 -2265 -1481 -899 -588 -1745 -1141
-1880 -1229 -135 -88 -252 -160 -260 -160 -8 0 -627 400 -1375 889 -748 489
-1877 1228 -2510 1641 -632 414 -1150 756 -1149 761 0 7 668 445 2995 1964
393 257 1011 661 1374 898 368 241 666 429 673 426 8 -3 609 -394 1336 -869z
m-4806 -4066 c282 -184 565 -370 630 -412 64 -42 173 -113 242 -158 69 -45
179 -117 245 -160 66 -43 176 -115 245 -160 117 -76 178 -115 472 -308 65 -42
245 -160 400 -262 156 -101 393 -257 528 -345 135 -89 347 -228 473 -309 l227
-148 228 148 c249 162 441 288 747 488 110 73 327 215 483 316 155 102 335
220 400 262 64 42 173 113 242 158 69 45 179 117 245 160 66 43 176 115 245
160 69 44 178 115 242 158 694 455 1146 747 1158 746 8 0 248 -152 533 -339
418 -273 516 -341 505 -351 -7 -6 -776 -510 -1708 -1120 -932 -609 -2059
-1345 -2503 -1636 -445 -290 -812 -528 -817 -528 -7 0 -1139 739 -4914 3207
-72 47 -125 88 -120 93 27 25 1041 680 1050 678 5 -2 241 -154 522 -338z m-68
-1977 c242 -158 499 -326 571 -373 72 -47 292 -191 490 -320 198 -129 410
-268 472 -308 62 -41 165 -108 229 -150 160 -105 994 -649 1128 -737 36 -23
110 -71 165 -107 174 -114 399 -260 438 -285 l37 -23 120 77 c66 43 173 113
238 155 64 43 144 94 177 115 33 20 170 109 305 198 135 88 424 278 643 420
219 143 449 294 512 335 156 102 804 525 965 630 71 47 329 215 572 374 244
160 450 290 458 290 22 -1 1051 -677 1042 -685 -7 -7 -518 -342 -3694 -2421
-731 -477 -1332 -868 -1338 -868 -9 0 -679 436 -2125 1383 -319 209 -1102 722
-1740 1139 -638 418 -1163 763 -1167 767 -10 9 1033 692 1049 686 7 -2 211
-134 453 -292z"/>
<path d="M16680 17255 c-347 -70 -591 -377 -567 -715 10 -138 46 -234 134
-358 40 -56 169 -172 205 -184 14 -5 1 -59 -88 -373 -25 -88 -61 -214 -79
-280 -55 -195 -107 -379 -112 -397 -5 -17 31 -18 651 -18 480 0 656 3 656 11
0 6 -13 57 -30 113 -16 55 -68 238 -115 406 -47 168 -99 352 -116 409 -16 57
-29 109 -29 115 0 7 14 20 31 30 45 27 156 134 190 183 86 125 122 241 121
393 0 120 -21 200 -79 312 -138 264 -467 415 -773 353z"/>
</g>
</svg>
